<svg width="30" height="30" viewBox="0 0 30 30" fill="none" xmlns="http://www.w3.org/2000/svg">
<g clip-path="url(#clip0_112_193)">
<path d="M29.375 8.1336C29.2051 7.52764 28.8742 6.97903 28.4175 6.5461C27.9478 6.09986 27.3722 5.78065 26.745 5.6186C24.3975 4.99985 14.9925 4.99985 14.9925 4.99985C11.0716 4.95524 7.15176 5.15144 3.25498 5.58735C2.62772 5.76137 2.05318 6.08771 1.58248 6.53735C1.11998 6.98235 0.784978 7.5311 0.609978 8.13235C0.189594 10.397 -0.014657 12.6965 -2.1978e-05 14.9999C-0.015022 17.3011 0.188728 19.5999 0.609978 21.8674C0.781228 22.4661 1.11498 23.0124 1.57873 23.4536C2.04248 23.8949 2.61998 24.2136 3.25498 24.3824C5.63373 24.9999 14.9925 24.9999 14.9925 24.9999C18.9183 25.0445 22.8432 24.8483 26.745 24.4124C27.3722 24.2503 27.9478 23.9311 28.4175 23.4849C28.8741 23.052 29.2046 22.5033 29.3737 21.8974C29.8051 19.6335 30.0148 17.3331 30 15.0286C30.0324 12.7144 29.823 10.4031 29.375 8.13235V8.1336ZM12.0025 19.2799V10.7211L19.8275 15.0011L12.0025 19.2799Z" fill="#0C120C"/>
</g>
<defs>
<clipPath id="clip0_112_193">
<rect width="30" height="30" fill="white"/>
</clipPath>
</defs>
</svg>
