<svg width="18" height="18" viewBox="0 0 18 18" fill="none" xmlns="http://www.w3.org/2000/svg">
<g clip-path="url(#clip0_446_766)">
<path d="M17.625 4.88006C17.5231 4.51649 17.3246 4.18732 17.0505 3.92756C16.7687 3.65982 16.4234 3.46829 16.047 3.37106C14.6385 2.99981 8.99551 2.99981 8.99551 2.99981C6.643 2.97305 4.29108 3.09077 1.95301 3.35231C1.57665 3.45672 1.23193 3.65253 0.949505 3.92231C0.672005 4.18931 0.471005 4.51856 0.366005 4.87931C0.113775 6.23812 -0.00877586 7.61782 5.12373e-06 8.99981C-0.00899488 10.3806 0.113255 11.7598 0.366005 13.1203C0.468755 13.4796 0.669005 13.8073 0.947255 14.0721C1.22551 14.3368 1.57201 14.5281 1.95301 14.6293C3.38026 14.9998 8.99551 14.9998 8.99551 14.9998C11.351 15.0266 13.7059 14.9089 16.047 14.6473C16.4234 14.5501 16.7687 14.3586 17.0505 14.0908C17.3245 13.8311 17.5228 13.5019 17.6243 13.1383C17.8831 11.78 18.0089 10.3998 18 9.01706C18.0195 7.62852 17.8938 6.24174 17.625 4.87931V4.88006ZM7.20151 11.5678V6.43256L11.8965 9.00056L7.20151 11.5678Z" fill="#295C56"/>
</g>
<defs>
<clipPath id="clip0_446_766">
<rect width="18" height="18" fill="white"/>
</clipPath>
</defs>
</svg>
