<svg width="193" height="51" viewBox="0 0 193 51" fill="none" xmlns="http://www.w3.org/2000/svg">
<path d="M10.5045 2.72C12.6005 2.72 14.0965 3.248 14.9925 4.304C15.6485 5.104 15.9765 6.104 15.9765 7.304C15.9765 7.736 15.9365 8.192 15.8565 8.672L14.9205 14.024C14.6005 15.832 13.8165 17.28 12.5685 18.368C11.3205 19.456 9.70447 20 7.72047 20H0.736472L3.78447 2.72H10.5045ZM8.99247 6.464H7.43247L5.72847 16.256H8.00847C8.76047 16.256 9.34447 16.056 9.76047 15.656C10.1925 15.24 10.4885 14.568 10.6485 13.64L11.3445 9.704C11.4085 9.352 11.4405 9.032 11.4405 8.744C11.4405 7.224 10.6245 6.464 8.99247 6.464ZM20.7992 3.632C20.7992 2.608 21.0232 1.864 21.4712 1.4C21.9352 0.919999 22.6472 0.679998 23.6072 0.679998C25.0632 0.679998 25.7912 1.392 25.7912 2.816C25.7912 7.52 23.5592 9.872 19.0952 9.872L19.4072 8.144C19.9832 8.144 20.6472 7.904 21.3992 7.424C22.1672 6.928 22.6312 6.24 22.7912 5.36C21.4632 5.36 20.7992 4.784 20.7992 3.632ZM38.8329 20H26.7849L29.8329 2.72H41.8809L41.2089 6.464H33.4809L32.9289 9.704H39.3129L38.6409 13.448H32.2569L31.7769 16.256H39.5049L38.8329 20ZM62.7414 16.928C63.1094 16.928 63.4374 16.848 63.7254 16.688L63.6054 19.4C62.8534 20.024 61.9974 20.336 61.0374 20.336C58.8614 20.336 57.7734 19.424 57.7734 17.6C57.7734 17.28 57.8054 16.936 57.8694 16.568L58.3734 13.616C58.4214 13.328 58.4454 13.04 58.4454 12.752C58.4454 11.984 58.0214 11.6 57.1734 11.6C56.3414 11.6 55.6854 11.928 55.2054 12.584L53.9094 20H49.8294L50.9574 13.616C51.0054 13.328 51.0294 13.04 51.0294 12.752C51.0294 11.984 50.5974 11.6 49.7334 11.6C49.0454 11.6 48.4534 11.864 47.9574 12.392L46.6134 20H42.5334L44.5734 8.456H48.3654L48.1014 9.896C49.0614 8.712 50.2774 8.12 51.7494 8.12C53.8294 8.12 55.0134 8.808 55.3014 10.184C56.2614 8.808 57.5414 8.12 59.1414 8.12C60.7574 8.12 61.8054 8.48 62.2854 9.2C62.6054 9.696 62.7654 10.24 62.7654 10.832C62.7654 11.424 62.7254 11.96 62.6454 12.44L62.0454 16.016C62.0294 16.112 62.0214 16.2 62.0214 16.28C62.0214 16.712 62.2614 16.928 62.7414 16.928ZM74.567 8.12C76.151 8.12 77.263 8.56 77.903 9.44C78.383 10.064 78.623 10.824 78.623 11.72C78.623 12.088 78.583 12.472 78.503 12.872L78.023 15.56C77.751 17.096 77.039 18.28 75.887 19.112C74.751 19.928 73.311 20.336 71.567 20.336C69.839 20.336 68.511 19.992 67.583 19.304C66.847 18.76 66.479 18 66.479 17.024C66.479 16.768 66.503 16.504 66.551 16.232L69.095 1.784H73.175L71.951 8.768C72.623 8.336 73.495 8.12 74.567 8.12ZM74.351 13.232C74.367 13.104 74.375 12.928 74.375 12.704C74.375 12.464 74.271 12.216 74.063 11.96C73.871 11.688 73.439 11.552 72.767 11.552C72.111 11.552 71.639 11.752 71.351 12.152L70.655 16.16C70.847 16.64 71.247 16.88 71.855 16.88C73.087 16.88 73.815 16.264 74.039 15.032L74.351 13.232ZM92.7905 16.304C92.7905 16.72 92.9985 16.928 93.4145 16.928C93.8465 16.928 94.2065 16.848 94.4945 16.688L94.3745 19.4C93.6065 20.024 92.7425 20.336 91.7825 20.336C89.9745 20.336 88.9905 19.64 88.8305 18.248C87.8705 19.64 86.5745 20.336 84.9425 20.336C83.3265 20.336 82.2785 19.968 81.7985 19.232C81.4785 18.768 81.3185 18.24 81.3185 17.648C81.3185 17.056 81.3665 16.512 81.4625 16.016L82.8065 8.456H86.8865L85.7585 14.84C85.7105 15.128 85.6865 15.416 85.6865 15.704C85.6865 16.472 86.1185 16.856 86.9825 16.856C87.7025 16.856 88.2785 16.608 88.7105 16.112L90.0785 8.456H94.1585L92.8145 16.016C92.7985 16.112 92.7905 16.208 92.7905 16.304ZM104.916 12.632C104.916 11.944 104.58 11.6 103.908 11.6C103.252 11.6 102.708 11.848 102.276 12.344L100.932 20H96.8522L98.8922 8.456H102.684L102.42 9.872C103.364 8.704 104.556 8.12 105.996 8.12C107.436 8.12 108.372 8.472 108.804 9.176C109.076 9.624 109.212 10.136 109.212 10.712C109.212 11.288 109.172 11.824 109.092 12.32L108.444 16.016C108.428 16.112 108.42 16.2 108.42 16.28C108.42 16.712 108.66 16.928 109.14 16.928C109.508 16.928 109.836 16.848 110.124 16.688L110.004 19.4C109.252 20.024 108.396 20.336 107.436 20.336C105.26 20.336 104.172 19.424 104.172 17.6C104.172 17.28 104.204 16.936 104.268 16.568L104.844 13.376C104.892 13.088 104.916 12.84 104.916 12.632ZM123.292 20.384C122.94 22.416 122.132 24.024 120.868 25.208C119.62 26.392 118.188 26.984 116.572 26.984C114.956 26.984 113.788 26.688 113.068 26.096C112.364 25.504 112.012 24.728 112.012 23.768C112.012 22.36 112.908 21.136 114.7 20.096C113.34 19.664 112.66 18.632 112.66 17C112.66 16.6 112.7 16.16 112.78 15.68L113.26 12.872C113.516 11.432 114.108 10.288 115.036 9.44C115.964 8.576 117.164 8.144 118.636 8.144C120.124 8.144 121.14 8.504 121.684 9.224L121.828 8.456H125.404L123.292 20.384ZM116.956 15.152C116.924 15.296 116.908 15.496 116.908 15.752C116.908 16.008 117.028 16.264 117.268 16.52C117.508 16.76 117.908 16.88 118.468 16.88C119.044 16.88 119.54 16.656 119.956 16.208L120.676 12.176C120.452 11.776 120.028 11.576 119.404 11.576C118.78 11.576 118.292 11.736 117.94 12.056C117.588 12.376 117.364 12.808 117.268 13.352L116.956 15.152ZM117.124 23.552C118.164 23.552 118.844 22.608 119.164 20.72L119.404 19.328C117.18 20.368 116.068 21.416 116.068 22.472C116.068 22.792 116.156 23.048 116.332 23.24C116.524 23.448 116.788 23.552 117.124 23.552ZM142.297 14.744H139.441L138.505 20H134.185L137.233 2.72H144.553C146.361 2.72 147.649 3.136 148.417 3.968C148.977 4.608 149.257 5.424 149.257 6.416C149.257 6.752 149.225 7.104 149.161 7.472L148.681 10.184C148.441 11.512 147.737 12.608 146.569 13.472C145.401 14.32 143.977 14.744 142.297 14.744ZM143.041 6.464H140.881L140.089 11H142.225C143.537 11 144.297 10.416 144.505 9.248L144.673 8.264C144.705 8.12 144.721 7.928 144.721 7.688C144.721 7.448 144.601 7.184 144.361 6.896C144.121 6.608 143.681 6.464 143.041 6.464ZM161.9 16.304C161.9 16.72 162.108 16.928 162.524 16.928C162.956 16.928 163.316 16.848 163.604 16.688L163.484 19.4C162.716 20.024 161.852 20.336 160.892 20.336C159.132 20.336 158.156 19.696 157.964 18.416C157.164 19.696 155.988 20.336 154.436 20.336C151.812 20.336 150.5 19.208 150.5 16.952C150.5 16.568 150.54 16.144 150.62 15.68L151.124 12.872C151.38 11.432 151.964 10.288 152.876 9.44C153.804 8.576 155.004 8.144 156.476 8.144C157.964 8.144 158.972 8.488 159.5 9.176L159.62 8.456H163.268L161.924 16.016C161.908 16.112 161.9 16.208 161.9 16.304ZM154.796 15.152C154.764 15.296 154.748 15.496 154.748 15.752C154.748 16.008 154.868 16.264 155.108 16.52C155.348 16.76 155.748 16.88 156.308 16.88C156.884 16.88 157.38 16.656 157.796 16.208L158.516 12.176C158.34 11.776 157.924 11.576 157.268 11.576C156.036 11.576 155.316 12.168 155.108 13.352L154.796 15.152ZM177.922 10.904C177.922 11.448 177.826 11.976 177.634 12.488C177.458 13 177.282 13.376 177.106 13.616L176.842 13.952H173.218C173.618 13.584 173.818 13.128 173.818 12.584C173.818 12.296 173.722 12.064 173.53 11.888C173.354 11.696 173.106 11.6 172.786 11.6C172.242 11.6 171.77 11.872 171.37 12.416L170.026 20H165.946L167.986 8.456H171.778L171.49 10.064C172.402 8.768 173.506 8.12 174.802 8.12C175.842 8.12 176.618 8.368 177.13 8.864C177.658 9.36 177.922 10.04 177.922 10.904ZM191.306 16.928C191.674 16.928 192.002 16.848 192.29 16.688L192.17 19.4C191.418 20.024 190.498 20.336 189.41 20.336C188.322 20.336 187.514 20.048 186.986 19.472C186.474 18.896 186.074 17.928 185.786 16.568L185.714 16.232C185.378 16.28 184.874 16.32 184.202 16.352L183.554 20H179.474L182.69 1.784H186.77L185.378 9.68C186.322 8.64 187.602 8.12 189.218 8.12C190.306 8.12 191.106 8.392 191.618 8.936C192.146 9.464 192.41 10.176 192.41 11.072C192.41 12.8 191.506 14.152 189.698 15.128L189.962 16.016C190.138 16.624 190.586 16.928 191.306 16.928ZM187.154 11.384C186.29 11.384 185.522 11.792 184.85 12.608L184.586 14.192C186.954 14.096 188.138 13.464 188.138 12.296C188.138 12.024 188.05 11.808 187.874 11.648C187.714 11.472 187.474 11.384 187.154 11.384ZM19.8219 38.744H16.9659L16.0299 44H11.7099L14.7579 26.72H22.0779C23.8859 26.72 25.1739 27.136 25.9419 27.968C26.5019 28.608 26.7819 29.424 26.7819 30.416C26.7819 30.752 26.7499 31.104 26.6859 31.472L26.2059 34.184C25.9659 35.512 25.2619 36.608 24.0939 37.472C22.9259 38.32 21.5019 38.744 19.8219 38.744ZM20.5659 30.464H18.4059L17.6139 35H19.7499C21.0619 35 21.8219 34.416 22.0299 33.248L22.1979 32.264C22.2299 32.12 22.2459 31.928 22.2459 31.688C22.2459 31.448 22.1259 31.184 21.8859 30.896C21.6459 30.608 21.2059 30.464 20.5659 30.464ZM39.4254 40.304C39.4254 40.72 39.6334 40.928 40.0494 40.928C40.4814 40.928 40.8414 40.848 41.1294 40.688L41.0094 43.4C40.2414 44.024 39.3774 44.336 38.4174 44.336C36.6574 44.336 35.6814 43.696 35.4894 42.416C34.6894 43.696 33.5134 44.336 31.9614 44.336C29.3374 44.336 28.0254 43.208 28.0254 40.952C28.0254 40.568 28.0654 40.144 28.1454 39.68L28.6494 36.872C28.9054 35.432 29.4894 34.288 30.4014 33.44C31.3294 32.576 32.5294 32.144 34.0014 32.144C35.4894 32.144 36.4974 32.488 37.0254 33.176L37.1454 32.456H40.7934L39.4494 40.016C39.4334 40.112 39.4254 40.208 39.4254 40.304ZM32.3214 39.152C32.2894 39.296 32.2734 39.496 32.2734 39.752C32.2734 40.008 32.3934 40.264 32.6334 40.52C32.8734 40.76 33.2734 40.88 33.8334 40.88C34.4094 40.88 34.9054 40.656 35.3214 40.208L36.0414 36.176C35.8654 35.776 35.4494 35.576 34.7934 35.576C33.5614 35.576 32.8414 36.168 32.6334 37.352L32.3214 39.152ZM51.5349 36.632C51.5349 35.944 51.1989 35.6 50.5269 35.6C49.8709 35.6 49.3269 35.848 48.8949 36.344L47.5509 44H43.4709L45.5109 32.456H49.3029L49.0389 33.872C49.9829 32.704 51.1749 32.12 52.6149 32.12C54.0549 32.12 54.9909 32.472 55.4229 33.176C55.6949 33.624 55.8309 34.136 55.8309 34.712C55.8309 35.288 55.7909 35.824 55.7109 36.32L55.0629 40.016C55.0469 40.112 55.0389 40.2 55.0389 40.28C55.0389 40.712 55.2789 40.928 55.7589 40.928C56.1269 40.928 56.4549 40.848 56.7429 40.688L56.6229 43.4C55.8709 44.024 55.0149 44.336 54.0549 44.336C51.8789 44.336 50.7909 43.424 50.7909 41.6C50.7909 41.28 50.8229 40.936 50.8869 40.568L51.4629 37.376C51.5109 37.088 51.5349 36.84 51.5349 36.632ZM70.6067 40.304C70.6067 40.72 70.8147 40.928 71.2307 40.928C71.6627 40.928 72.0227 40.848 72.3107 40.688L72.1907 43.4C71.4227 44.024 70.5587 44.336 69.5987 44.336C67.8387 44.336 66.8627 43.696 66.6707 42.416C65.8707 43.696 64.6947 44.336 63.1427 44.336C60.5187 44.336 59.2067 43.208 59.2067 40.952C59.2067 40.568 59.2467 40.144 59.3267 39.68L59.8307 36.872C60.0867 35.432 60.6707 34.288 61.5827 33.44C62.5107 32.576 63.7907 32.144 65.4227 32.144C66.4307 32.144 67.2307 32.36 67.8227 32.792L69.0467 25.784H73.1507L70.6307 40.016C70.6147 40.112 70.6067 40.208 70.6067 40.304ZM63.5027 39.152C63.4707 39.296 63.4547 39.496 63.4547 39.752C63.4547 40.008 63.5747 40.264 63.8147 40.52C64.0547 40.76 64.4547 40.88 65.0147 40.88C65.5907 40.88 66.0867 40.656 66.5027 40.208L67.2227 36.176C67.0467 35.776 66.6307 35.576 65.9747 35.576C64.7427 35.576 64.0227 36.168 63.8147 37.352L63.5027 39.152ZM86.6192 40.304C86.6192 40.72 86.8272 40.928 87.2432 40.928C87.6752 40.928 88.0352 40.848 88.3232 40.688L88.2032 43.4C87.4352 44.024 86.5712 44.336 85.6112 44.336C83.8512 44.336 82.8752 43.696 82.6832 42.416C81.8832 43.696 80.7072 44.336 79.1552 44.336C76.5312 44.336 75.2192 43.208 75.2192 40.952C75.2192 40.568 75.2592 40.144 75.3392 39.68L75.8432 36.872C76.0992 35.432 76.6832 34.288 77.5952 33.44C78.5232 32.576 79.7232 32.144 81.1952 32.144C82.6832 32.144 83.6912 32.488 84.2192 33.176L84.3392 32.456H87.9872L86.6432 40.016C86.6272 40.112 86.6192 40.208 86.6192 40.304ZM79.5152 39.152C79.4832 39.296 79.4672 39.496 79.4672 39.752C79.4672 40.008 79.5872 40.264 79.8272 40.52C80.0672 40.76 80.4672 40.88 81.0272 40.88C81.6032 40.88 82.0992 40.656 82.5152 40.208L83.2352 36.176C83.0592 35.776 82.6432 35.576 81.9872 35.576C80.7552 35.576 80.0352 36.168 79.8272 37.352L79.5152 39.152ZM98.7287 36.632C98.7287 35.944 98.3927 35.6 97.7207 35.6C97.0647 35.6 96.5207 35.848 96.0887 36.344L94.7447 44H90.6647L92.7047 32.456H96.4967L96.2327 33.872C97.1767 32.704 98.3687 32.12 99.8087 32.12C101.249 32.12 102.185 32.472 102.617 33.176C102.889 33.624 103.025 34.136 103.025 34.712C103.025 35.288 102.985 35.824 102.905 36.32L102.257 40.016C102.241 40.112 102.233 40.2 102.233 40.28C102.233 40.712 102.473 40.928 102.953 40.928C103.321 40.928 103.649 40.848 103.937 40.688L103.817 43.4C103.065 44.024 102.209 44.336 101.249 44.336C99.0727 44.336 97.9847 43.424 97.9847 41.6C97.9847 41.28 98.0167 40.936 98.0807 40.568L98.6567 37.376C98.7047 37.088 98.7287 36.84 98.7287 36.632ZM126.416 40.928C126.784 40.928 127.112 40.848 127.4 40.688L127.28 43.4C126.528 44.024 125.672 44.336 124.712 44.336C122.536 44.336 121.448 43.424 121.448 41.6C121.448 41.28 121.48 40.936 121.544 40.568L122.048 37.616C122.096 37.328 122.12 37.04 122.12 36.752C122.12 35.984 121.696 35.6 120.848 35.6C120.016 35.6 119.36 35.928 118.88 36.584L117.584 44H113.504L114.632 37.616C114.68 37.328 114.704 37.04 114.704 36.752C114.704 35.984 114.272 35.6 113.408 35.6C112.72 35.6 112.128 35.864 111.632 36.392L110.288 44H106.208L108.248 32.456H112.04L111.776 33.896C112.736 32.712 113.952 32.12 115.424 32.12C117.504 32.12 118.688 32.808 118.976 34.184C119.936 32.808 121.216 32.12 122.816 32.12C124.432 32.12 125.48 32.48 125.96 33.2C126.28 33.696 126.44 34.24 126.44 34.832C126.44 35.424 126.4 35.96 126.32 36.44L125.72 40.016C125.704 40.112 125.696 40.2 125.696 40.28C125.696 40.712 125.936 40.928 126.416 40.928ZM141.578 40.304C141.578 40.72 141.786 40.928 142.202 40.928C142.634 40.928 142.994 40.848 143.282 40.688L143.162 43.4C142.394 44.024 141.53 44.336 140.57 44.336C138.762 44.336 137.778 43.64 137.618 42.248C136.658 43.64 135.362 44.336 133.73 44.336C132.114 44.336 131.066 43.968 130.586 43.232C130.266 42.768 130.106 42.24 130.106 41.648C130.106 41.056 130.154 40.512 130.25 40.016L131.594 32.456H135.674L134.546 38.84C134.498 39.128 134.474 39.416 134.474 39.704C134.474 40.472 134.906 40.856 135.77 40.856C136.49 40.856 137.066 40.608 137.498 40.112L138.866 32.456H142.946L141.602 40.016C141.586 40.112 141.578 40.208 141.578 40.304ZM150.44 40.304C150.44 40.72 150.648 40.928 151.064 40.928C151.496 40.928 151.856 40.848 152.144 40.688L152.024 43.4C151.256 44.024 150.392 44.336 149.432 44.336C147.976 44.336 147.032 44 146.6 43.328C146.328 42.896 146.192 42.424 146.192 41.912C146.192 41.4 146.224 40.952 146.288 40.568L148.904 25.784H152.984L150.464 40.016C150.448 40.112 150.44 40.208 150.44 40.304ZM159.424 38.84C159.376 39.128 159.352 39.416 159.352 39.704C159.352 40.472 159.784 40.856 160.648 40.856C161.352 40.856 161.936 40.608 162.4 40.112L163.744 32.456H167.824L165.712 44.384C165.36 46.416 164.552 48.024 163.288 49.208C162.04 50.392 160.608 50.984 158.992 50.984C157.376 50.984 156.208 50.688 155.488 50.096C154.784 49.504 154.432 48.728 154.432 47.768C154.432 46.408 155.272 45.2 156.952 44.144C156.04 43.92 155.464 43.464 155.224 42.776C155.08 42.392 155.008 41.96 155.008 41.48C155.008 41 155.048 40.512 155.128 40.016L156.472 32.456H160.552L159.424 38.84ZM159.544 47.552C160.584 47.552 161.264 46.608 161.584 44.72L161.824 43.328C159.6 44.368 158.488 45.416 158.488 46.472C158.488 46.792 158.576 47.048 158.752 47.24C158.944 47.448 159.208 47.552 159.544 47.552ZM176.903 32.12C178.631 32.12 179.935 32.496 180.815 33.248C181.503 33.84 181.847 34.664 181.847 35.72C181.847 36.072 181.807 36.456 181.727 36.872L181.223 39.68C180.919 41.376 180.207 42.576 179.087 43.28C177.983 43.984 176.503 44.336 174.647 44.336C172.791 44.336 171.431 43.984 170.567 43.28C169.927 42.752 169.607 41.96 169.607 40.904C169.607 40.536 169.647 40.128 169.727 39.68L170.231 36.872C170.791 33.704 173.015 32.12 176.903 32.12ZM177.551 37.352C177.583 37.192 177.599 36.992 177.599 36.752C177.599 36.496 177.495 36.216 177.287 35.912C177.079 35.608 176.711 35.456 176.183 35.456C175.671 35.456 175.239 35.632 174.887 35.984C174.535 36.32 174.311 36.776 174.215 37.352L173.903 39.152C173.871 39.312 173.855 39.52 173.855 39.776C173.855 40.016 173.959 40.28 174.167 40.568C174.375 40.856 174.735 41 175.247 41C175.775 41 176.215 40.824 176.567 40.472C176.919 40.104 177.143 39.664 177.239 39.152L177.551 37.352Z" fill="#295C56"/>
</svg>
